# xmcd
#
# Track frame offsets:
#	150
#	15349
#	26871
#	40096
#	56125
#	65095
#	82199
#	91654
#	105519
#	119011
#	132019
#
# Disc length: 1905 seconds
#
# Revision: 1
# Processed by: cddbd v1.4PL0 Copyright (c) Steve Scherf et al.
# Submitted via: audiograbber 1.82.02
#
DISCID=8f076f0b
DTITLE=Merle Haggard - Like Never Before
DYEAR=2003
DGENRE=Country
TTITLE0=Haggard (Like I've Never Been Before)
TTITLE1=That's The News
TTITLE2=Garbage Man
TTITLE3=Reno Blues (Philadelphia Lawyer)
TTITLE4=The Downside
TTITLE5=Because Of Your Eyes
TTITLE6=Lonesome Day
TTITLE7=I Dreamed You Didn't Love Me
TTITLE8=Yellow Ribbons
TTITLE9=I Hate To See It Go
TTITLE10=Return To San Francisco
EXTD=
EXTT0=
EXTT1=
EXTT2=
EXTT3=
EXTT4=
EXTT5=
EXTT6=
EXTT7=
EXTT8=
EXTT9=
EXTT10=
PLAYORDER=
